<svg xmlns="http://www.w3.org/2000/svg" width="400" height="340.167"><path fill-rule="evenodd" clip-rule="evenodd" fill="#F4E4DC" d="M238.403 105.683c.971-.002.525-1.422 1.558-1.362 39.601-2.825 88.334-1.544 112.142 18.3 1.588 11.303 10.601 23.568 7.205 36.02-2.704 1.225-3.66-2.053-5.062-2.726-7.573-3.634-32.036-11.535-32.902.584-.167 2.327 1.611 4.649 3.893 4.866 11.914 1.136 23.262-1.643 32.904 2.922-.879 7.424-3.495 12.252-3.7 20.053-9.864-.232-24.754-2.803-30.761 3.311 11.051-1.821 24.686-.834 31.734 5.061 1.443 5.697 3.417 10.861 4.479 16.939 2.944 7.11 7.797 14.295 7.203 24.337-1.038 17.596-16.423 28.301-24.92 41.079-9.18 13.803-13.021 28.605-19.859 44-18.1 22.348-60.422 12.807-90.143 8.178-40.143-6.251-91.719-20.61-106.301-51.01-3.182-6.629-3.615-22.861-11.099-24.336-5.045-.995-3.069 3.08-3.894 6.425-1.535 6.218-18.765.275-22.001-1.558-7.845-4.445-15.095-11.165-21.222-18.302-5.188-6.044-10.143-7.384-6.619-15.38 2.255-5.117 4.09-8.855 8.177-13.434 1.843-2.064 8.274-10.716 10.709-10.904 3.729-.287 9.121 7.304 9.345 11.293.466 8.283-1.43 17.063 2.921 21.416-2.499.471-3.296-2.563-5.062-1.559-.229 2.654 11.801 7.787 12.071 2.922.265-4.759-7.518-7.02-8.178-13.629-.333-3.336 1.258-3.938 1.753-7.398 1.458-10.205-4.03-13.35-9.734-16.354 2.692-3.342 6.38-5.691 10.513-7.594 3.986 3.479 6.45 9.514 11.098 11.682-.232-2.508-3.432-4.729-3.115-7.787 20 6.102 34.562 24.476 58.213 24.336-11.566-20.359-15.674-54.318-9.345-81.77 2.114.351 3.257 1.676 5.451 1.945 12.366-6.317 29.11-14.254 45.169-17.521 5.818-1.186 22.488-3.421 23.168-8.566.908-6.876-6.129-13.847-2.336-21.807h.39c4.9 6.261 5.126 17.197 16.157 17.328z"/><path fill-rule="evenodd" clip-rule="evenodd" fill="#6FB4E3" d="M27.746 114.444c-.184 2.668-2.749 5.561-3.31 7.982-1.223 5.285-7.748 20.449-.779 22.195 3.838.961 7.518-4.381 9.93-6.036 9.084-6.237 17.156-13.341 21.416-24.142-3.939 15.293-15.785 22.195-25.699 31.15C14.948 158.562-1.589 179.108.49 207.116c3.436 46.274 33.254 73.118 67.363 89.947-17.002-10.406-35.84-27.164-31.346-55.877 2.438-15.569 10.6-24.609 17.717-34.849 7.932-11.409 20.951-18.525 27.452-29.593.937-1.596 2.044-3.244 2.531-4.674.706-2.076 1.435-15.764 2.726-15.77 2.01-.012.805 4.473 1.168 6.425 3.068 16.429 23.536 31.748 37.576 38.743 8.771 4.371 17.051 9.087 27.062 11.292-17.045-21.544-27.062-69.812-7.983-96.567 2.371 3.7 3.514 15.689 8.568 15.965 1.892.104 6.108-3.912 7.787-4.672 16.25-7.354 38.667-12.137 57.435-16.55-10.723-8.655-7.466-34.014 0-44.194 3.737 9.844 7.915 19.303 12.653 28.424 5.988 11.522 29.421 1.22 42.444.584 16.184-.789 34.018-3.497 50.425-.973 24.96 3.84 43.395 13.831 61.328 23.947-2.641-5.21-5.876-9.829-8.177-15.381-27.53-35.525-47.703-83.509-96.762-96.566-39.235-10.445-75.679 8.029-105.134 17.132-.149-2.902 3.884-3.233 5.646-4.867-12.175-6.12-34.765-9.771-51.788-4.867-31.663 9.121-52.994 25.273-70.674 45.755 0 0-15.682 19.688-27.363 45.386l-3.398 9.128z"/><path fill-rule="evenodd" clip-rule="evenodd" d="M88.62 30.904c17.997-13.401 40.326-22.591 70.348-20.426 11.62.837 23.691.929 35.435.778 18.813-.239 32.95-7.687 51.594-10.513 12.487-1.894 24.927.124 34.267 2.726 49.625 13.828 76.717 61.425 100.072 100.851 4.356 7.357 8.495 16.056 13.432 23.169 1.408 2.026 3.887 4.024 4.675 6.229 4.541 12.728-11.194 18.69-10.71 28.62.134 2.71 1.715 7.46 2.531 11.292 3.775 17.698 1.991 42.134-1.947 59.577-.776 3.443-1.915 10.283-5.062 10.122-4.071-.207-7.736-8.7-14.018-7.787.223 16.459-20.504 21.97-16.743 37.575 2.816 11.689 11.424 23.186 19.664 30.373-4.609 14.239-31.621 18.259-45.558 9.93-11.28 35.014-73.271 20.474-105.913 14.407-17.094-3.179-33.785-9.642-48.867-14.213-8.85-2.683-15.426-4.628-20.443 3.698-2.685-3.548-3.293-11.394-9.54-9.54-2.991 6.74-5.222 15.217-5.646 24.921-.431 9.834-5.112 4.41-8.566 1.363-3.284-2.896-7.696-5.893-10.708-8.373-24.621-20.27-63.66-25.619-84.691-50.619-3.616-4.299-8.211-7.193-11.486-11.291-6.799-8.511-14.141-20.137-16.744-30.178-6.151-23.729-5.736-47.394 5.062-65.807 1.656-2.824 4.961-6.05 5.841-9.93 2.814-12.411 2.726-22.502 7.177-35.393s7.896-18.062 7.896-18.062c10.248-23.124 28.807-51.03 40.75-60.117m-46.285 78.141c-1.223 5.285-7.748 20.449-.779 22.195 3.838.961 7.518-4.381 9.93-6.036 9.084-6.237 17.156-13.341 21.416-24.142-3.939 15.293-15.785 22.195-25.699 31.15C14.949 158.563.553 179.109 2.632 207.117c3.435 46.274 31.112 73.118 65.222 89.947-17.002-10.406-36.425-27.164-31.93-55.877 2.281-21.025 9.82-25.778 16.938-36.018 13.38-14.406 18.832-17.133 28.815-28.424.937-1.596 2.044-3.244 2.531-4.674.706-2.076 1.435-15.764 2.726-15.77 2.01-.012.805 4.473 1.168 6.425 3.068 16.429 23.536 31.748 37.576 38.743 8.771 4.371 17.051 9.087 27.062 11.292-17.045-21.544-27.062-69.812-7.983-96.567 2.371 3.7 3.514 15.689 8.568 15.965 1.892.104 6.108-3.912 7.787-4.672 16.25-7.354 38.667-12.137 57.435-16.55-10.723-8.655-7.466-34.014 0-44.194 3.737 9.844 7.915 19.303 12.653 28.424 5.988 11.522 29.421 1.22 42.444.584 16.184-.789 34.018-3.497 50.425-.973 24.96 3.84 43.395 13.831 61.328 23.947-2.641-5.21-5.876-9.829-8.177-15.381-27.53-35.525-47.703-83.509-96.762-96.566-39.235-10.445-75.679 8.029-105.134 17.132-.149-2.902 3.884-3.233 5.646-4.867-12.175-6.12-34.765-9.771-51.788-4.867-15.372 4.427-28.309 10.512-39.574 17.945-38.485 24.307-65.171 90.306-65.171 90.306zm197.807-34.073h-.39c-3.793 7.96 3.244 14.931 2.336 21.807-.68 5.146-17.35 7.381-23.168 8.566-16.059 3.268-32.803 11.204-45.169 17.521-2.194-.27-3.337-1.595-5.451-1.945-6.329 27.451-2.222 61.41 9.345 81.77-23.65.14-38.213-18.234-58.213-24.336-.316 3.059 2.883 5.279 3.115 7.787-4.647-2.168-7.111-8.202-11.098-11.682-4.133 1.902-7.82 4.252-10.513 7.594 5.704 3.004 11.192 6.148 9.734 16.354-.495 3.461-2.086 4.062-1.753 7.398.66 6.609 8.442 8.87 8.178 13.629-.271 4.865-12.3-.268-12.071-2.922 1.767-1.005 2.563 2.029 5.062 1.559-4.351-4.353-2.455-13.133-2.921-21.416-.224-3.989-5.615-11.58-9.345-11.293-2.435.188-8.866 8.84-10.709 10.904-4.087 4.578-5.922 8.316-8.177 13.434-3.523 7.996 1.432 9.336 6.619 15.38 6.127 7.137 13.377 13.856 21.222 18.302 3.236 1.833 20.466 7.775 22.001 1.558.824-3.345-1.151-7.42 3.894-6.425 7.483 1.475 7.917 17.707 11.099 24.336 14.582 30.399 66.158 44.759 106.301 51.01 29.721 4.629 72.043 14.17 90.143-8.178 6.839-15.395 10.68-30.197 19.859-44 8.497-12.778 23.882-23.483 24.92-41.079.594-10.042-4.259-17.227-7.203-24.337-1.062-6.078-3.035-11.242-4.479-16.939-7.049-5.895-20.684-6.882-31.734-5.061 6.007-6.113 20.896-3.543 30.761-3.311.205-7.801 2.821-12.629 3.7-20.053-9.643-4.564-20.99-1.786-32.904-2.922-2.281-.217-4.06-2.539-3.893-4.866.866-12.119 25.329-4.218 32.902-.584 1.402.673 2.358 3.95 5.062 2.726 3.396-12.451-5.617-24.717-7.205-36.02-23.808-19.844-72.541-21.125-112.142-18.3-1.032-.06-.587 1.36-1.558 1.362-11.029-.13-11.255-11.066-16.157-17.328zm143.293 44.002c-.56 2.9-3.491 5.215-1.946 8.955 4.412.186 10.795-3.176 12.654.779-2.144 1.757-8.295-.756-12.07 1.363 3.102 14.745-7.234 28.856-4.673 42.832 1.001.613 1.876-.461 2.726 0-4.981 2.33-.305 12.158.584 16.744 1.952 10.064 6.647 19.965 9.346 28.618 3.726 2.244 7.83 4.112 10.902 7.01 2.814-6.847 3.319-17.544 2.336-26.478-3.901-2.096-8.347-3.45-13.822-3.505 4.156-2.351 11.837-.467 13.822 1.751-.458-24.276-13.815-41.479-17.912-60.158-2.625-11.984 11.528 7.862 12.852 7.981 3.055.274 3.164-4.173.388-5.062-1.123-9.768-5.005-18.963-15.187-20.83zM132.88 332.305c2.971-9.425-.055-24.845 7.398-29.788.967.693-.543 1.795-.389 2.92 1.278-.991 2.139-2.402 2.725-4.088-6.789-4.779-14.781-11.092-18.885-19.469-3.109-6.344-7.928-17.606-14.991-18.886-8.368-1.514-14.012-1.646-20.247-4.478-6.23-2.828-10.407-8.277-15.771-12.85-4.287-3.656-10.834-5.257-15.38 0-7.171 12.467-.26 28.854 4.866 38.744 19.736 19.788 47.534 31.511 70.674 47.895zm12.266-29.204c2.231 2.961 4.543 5.842 6.814 8.762 2.631-.355 3.114-2.856 4.867-4.089-1.373-1.104-5.026.949-6.23-.585-.216-1.059 1.065-.621.973-1.557-1.876-.989-4.133-2.6-6.424-2.531z"/><path d="M62.206 284.411c-5.126-9.891-12.037-26.277-4.866-38.744 4.546-5.257 11.093-3.656 15.38 0 5.364 4.572 9.541 10.021 15.771 12.85 6.235 2.831 11.879 2.964 20.247 4.478 7.063 1.279 11.882 12.542 14.991 18.886 4.104 8.377 12.096 14.689 18.885 19.469-.586 1.686-1.446 3.097-2.725 4.088-.154-1.125 1.355-2.227.389-2.92-7.453 4.943-4.428 20.363-7.398 29.788-23.14-16.385-50.938-28.108-70.674-47.895zm318.517-131.223c2.776.889 2.667 5.336-.388 5.062-1.323-.119-15.477-19.966-12.852-7.981 4.097 18.68 17.454 35.882 17.912 60.158-1.985-2.218-9.666-4.102-13.822-1.751 5.476.055 9.921 1.409 13.822 3.505.983 8.934.479 19.631-2.336 26.478-3.072-2.897-7.177-4.766-10.902-7.01-2.698-8.653-7.394-18.554-9.346-28.618-.889-4.586-5.565-14.414-.584-16.744-.85-.461-1.725.613-2.726 0-2.562-13.976 7.774-28.087 4.673-42.832 3.775-2.119 9.927.394 12.07-1.363-1.859-3.955-8.242-.594-12.654-.779-1.545-3.74 1.387-6.055 1.946-8.955 10.183 1.865 14.065 11.06 15.187 20.83zm-23.947 158.48c-7.646 1.251-20.199 3.134-22.584-4.479 4.146 1.559 11.012 3.292 15.77.975-4.519-1.9-12.025.766-16.354-2.531-.225-1.786-1.404-2.619-1.946-4.088.361-.742 1.586-.621 1.946-1.363-1.187-4.682 3.772-9.639 5.646-13.822 2.587 11.688 9.694 18.859 17.522 25.308zm-22.001-11.487c2.495.61 6.529 2.098 8.567.195-1.457-2.001-5.92-.081-8.567-.195z" fill-rule="evenodd" clip-rule="evenodd" fill="#33545E"/><path opacity=".1" fill-rule="evenodd" clip-rule="evenodd" fill="#010101" d="M329.593 194.285s24.238 1.46 22.777 5.55c-1.459 4.088-18.981 1.459-22.777-5.55zm-78.555 1.655s-32.706-3.504-39.715 1.168c-7.009 4.673 26.574 13.433 39.715-1.168z"/><path fill-rule="evenodd" clip-rule="evenodd" d="M94.721 108.798c6.427-15.218 13.415-32.424 25.894-41.664 1.615-1.195 10.889-4.867 10.123-7.593-.195-.702-1.949-1.187-2.725-1.169-6.057.14-14.822 11.461-14.822 11.461s-17.72 23.587-18.47 38.965z"/><path opacity=".1" fill-rule="evenodd" clip-rule="evenodd" fill="#010101" d="M330.177 218.329s10.514 18.398-18.105 23.652c0 0-18.982.585-30.078-1.166 0 0-11.152-2.951-9.52-9.361 0 0 24.704-.569 29.961-9.037 0 0 12.266 8.76 22.777 1.168l4.965-5.256z"/><path fill-rule="evenodd" clip-rule="evenodd" d="M355.024 117.17c1.138-1.589 7.701-5.2 7.203-7.203-.486-1.954-8.042 4.438-7.203 7.203zm-260.303-7.593c-1.583.883-1.094 3.839-1.362 6.035 1.604-.802 1.662-3.947 1.362-6.035zm181.258 35.629c4.924 2.856 3.989 12.559-3.115 11.876-12.938-1.243-28.663-6.786-44.391-5.842-18.587 1.117-36.564 1.084-50.814 6.815 18.814-16.864 63.916-21.025 95.983-13.629l2.337.78z"/><path fill-rule="evenodd" clip-rule="evenodd" fill="#343D51" d="M221.075 170.321c11.096-3.203 25.596 1.141 33.099 4.867-6.37-6.757-24.238-10.796-33.099-4.867z"/><path fill-rule="evenodd" clip-rule="evenodd" fill="#010101" d="M299.926 219.968c4.049 9.486 25.88 11.783 29.593.391 7.217 12.862-9.912 20.211-21.415 21.998 10.147 2.818 18.261-3.119 23.168-8.565 8.077-18.49-12.544-30.964-19.664-45.364-2.358-4.768-3.558-9.731-.973-14.796.054-.313-.185-.335-.194-.585-1.6-.373-3.457 3.715-3.701 5.258-2.387 15.074 16.74 25.223 20.249 36.796 4.297 14.178-21.746 11.805-27.063 4.867z"/><path fill-rule="evenodd" clip-rule="evenodd" fill="#343D51" d="M333.413 174.604c3.793.193 9.699 1.17 13.239 2.53-.067-3.947-9.947-4.49-13.239-2.53z"/><path fill-rule="evenodd" clip-rule="evenodd" d="M365.147 174.604c2.068 1.327 6.281 1.479 8.566 1.947.124-3.452-6.423-3.203-8.566-1.947zm-171.329 11.682c22.108-.184 51.776-9.338 69.7 3.504-2.559-8.9-15.869-9.406-26.283-10.124-16.017-1.104-30.681 4.452-43.417 6.62zm-118.76 1.363c.492 2.76 2.758 4.758 5.256 4.867-.979-2.397-3.454-3.297-5.256-4.867zm292.037 7.981c3.221 1.201 9.729-.865 13.434 1.364-1.306-4.644-9.975-3-13.434-1.364z"/><path fill-rule="evenodd" clip-rule="evenodd" fill="#343D51" d="M335.554 196.021c-.377.841.031 2.382 1.17 2.336.298-.763-.088-2.326-1.17-2.336zm5.063 1.556c-.448.797-.243 2.386.778 2.337.006-.188.238-.151.389-.194.051-1.155-.029-2.178-1.167-2.143z"/><path fill-rule="evenodd" clip-rule="evenodd" d="M65.712 198.161c-.49.587.064 1.378.973 1.17.08-.795-.2-1.228-.973-1.17z"/><path fill-rule="evenodd" clip-rule="evenodd" fill="#343D51" d="M234.509 197.968h-.584c-.162 1.049.296 3.048 1.169 3.698 1.958-.839-.718-2.263-.585-3.698zm-4.478 0c-.264 1.337-.288 4.026 1.362 4.089.833-1.273.237-4.001-1.362-4.089zm-5.257.388c-.265.578-.281 1.411.195 1.752 1.044.03 1.098-2.007-.195-1.752zm13.434.975c.139 1.16.363 2.232 1.169 2.726 1.883-.186.452-4.392-1.169-2.726zm114.674 8.955c-.166 1.074.386 1.432 1.169 1.557 1.089-.774-.261-2.78-1.169-1.557zm-148.744.584c-1.375-.268-1.774 1.613-.974 2.336h1.168c.622-.443.509-2.09-.194-2.336zm-15.381 1.168c-1.248.506-.88 2.775.974 2.336a.987.987 0 01.583-.584c.035-1.137-.506-1.699-1.557-1.752zm161.594 4.867c-.114.959.188 1.5 1.169 1.363.812-.647-.173-2.058-1.169-1.363zm-155.949 4.09c-.024.479-.028.938.194 1.168.784.199.866-.303 1.169-.584-.173-.644-.715-.919-1.363-.584zm163.933 1.363c-.117 1.154.4 1.673 1.557 1.557.086-.174.17-.35.389-.39.278-1.341-1.188-2.036-1.946-1.167zm-147.578 2.335c1.66-3.462-4.098-.585 0 0zm11.292-1.752c-1.87.761.11 3.794 1.363 1.946.183-1.284-.444-1.761-1.363-1.946z"/><path fill-rule="evenodd" clip-rule="evenodd" d="M374.688 225.224c2.06 1.074 5.515.05 7.397 1.558 1.872-3.377-7.186-4.241-7.397-1.558zM72.72 226.781c4.777 13.41-13.323-.268 0 0zm-.196 1.948c-5.412-1.873-.776 5.724 0 0z"/><path fill-rule="evenodd" clip-rule="evenodd" fill="#6FB4E3" d="M72.524 228.729c-5.412-1.873-.776 5.724 0 0z"/><path fill-rule="evenodd" clip-rule="evenodd" fill="#343D51" d="M359.502 228.729c-.633.654-.296 1.929.974 1.753.101-.288.287-.492.39-.779-.046-.735-.509-1.052-1.364-.974zm-87.028 2.725c-3.271 8.012 7.715 11.43 14.213 10.318-5.095-3.08-13.741-2.613-14.213-10.318zm12.85 4.673c1.743-1.21 12.437 2.165 12.655-.194.192-2.079-12.484-4.093-12.655.194z"/><path fill-rule="evenodd" clip-rule="evenodd" d="M84.401 235.933c.926 1.477 1.329 3.472 1.168 6.035-2.44 4.377-8.346 1.324-9.15-2.531.242-4.336 4.019-4.678 7.982-3.504zm-2.92 1.558c-1.604-.371-3.09-.067-3.31 1.362-1.067 6.919 11.244.468 3.31-1.362z"/><path fill-rule="evenodd" clip-rule="evenodd" fill="#6FB4E3" d="M81.481 237.491c-1.604-.371-3.09-.067-3.31 1.362-1.067 6.919 11.244.468 3.31-1.362z"/><path fill-rule="evenodd" clip-rule="evenodd" d="M95.304 254.623c-5.574-1.142-8.141-12.341.975-11.293 9.422 1.085 7.679 13.066-.975 11.293zm5.647-4.283c1.517-6.862-10.734-7.229-9.345-1.167.788 3.445 7.31 4.863 9.345 1.167z"/><path fill-rule="evenodd" clip-rule="evenodd" fill="#6FB4E3" d="M100.951 250.34c1.517-6.862-10.734-7.229-9.345-1.167.788 3.445 7.31 4.863 9.345 1.167z"/><path fill-rule="evenodd" clip-rule="evenodd" d="M211.341 260.464c-1.479-1.373-10.243-7.838-9.929-10.707.154-1.418 1.017-1.43 1.946-.975 35.146 17.203 95.617-.54 133.559 13.238-3.183-1.623-6.1.24-8.177 2.727-5.533 6.622-10.312 17.812-13.434 26.479 3.361.199 6.21-3.893 8.956-1.752-1.693 1.615-4.234 2.385-7.009 2.92-35.087 16.388-74.709-3.855-94.036-21.611-2.933-3.672-7.308-6.081-11.876-10.319zm14.213-2.337c-.77 13.034 12.816 11.716 20.248 16.55-3.76 4.041-10.369-5.312-13.045.389 16.518 14.438 46.056 26.865 75.735 18.496-1.184-4.312 1.036-9.531-1.362-13.045-1.519-.623-4.064-.219-5.646-.779 11.477-1.373 18.305-7.395 20.248-18.301-28.931-8.116-66.249-.356-96.178-3.31zm-164.711-7.009c.99 3.071 11.453 4.895 15.382 3.115-4.89-1.186-11.142-.883-15.382-3.115z"/><path fill-rule="evenodd" clip-rule="evenodd" fill="#FFF" d="M225.554 258.127c-.77 13.034 12.816 11.716 20.248 16.55-3.76 4.041-10.369-5.312-13.045.389 16.518 14.438 46.056 26.865 75.735 18.496-1.184-4.312 1.036-9.531-1.362-13.045-1.519-.623-4.064-.219-5.646-.779 11.477-1.373 18.305-7.395 20.248-18.301-28.931-8.116-66.249-.356-96.178-3.31z"/><path fill-rule="evenodd" clip-rule="evenodd" d="M70.036 272.042c1.943 1.131 6.127.584 9.15-.473-1.678-1.02-6.876.212-9.15.473zm25.774-3.881c-.261-.375-1.867.152-2.086.377.445.452 1.552-.281 2.086-.377zm-13.081 2.568c2.389.064 8.508-.307 9.801-1.975-2.917.339-6.658 1.214-9.801 1.975zm9.78 16.533c8.752.581 21.294-2.719 30.315-3.95l-.064-.581c-8.823.961-20.829 3.035-30.251 4.531zm40.564 13.698c-1.025-.055-1.867.079-2.336.584.075 1.054 2.912.844 2.336-.584z"/><path fill-rule="evenodd" clip-rule="evenodd" fill="#3C4D56" d="M145.146 303.101c2.231 2.961 4.543 5.842 6.814 8.762 2.631-.355 3.114-2.856 4.867-4.089-1.373-1.104-5.026.949-6.23-.585-.216-1.059 1.065-.621.973-1.557-1.876-.989-4.133-2.6-6.424-2.531z"/><path fill-rule="evenodd" clip-rule="evenodd" fill="#343D51" d="M289.802 310.305c1.632 3.729 23.123 1.372 22.585-1.558-.058-.316.095-.739-.39-.779-6.29-.514-15.543 4.049-22.195 2.337z"/><path fill-rule="evenodd" clip-rule="evenodd" d="M115.302 314.586c3.934.838 12.238.239 16.755-1.356-.019-.193-.035-.387-.053-.582-5.091.288-11.614 1.521-16.702 1.938z"/><path opacity=".1" fill-rule="evenodd" clip-rule="evenodd" fill="#010101" d="M174.917 230.885s4.089 3.798 2.045 8.761c-2.045 4.965-7.009 6.133-7.009 6.133s-.876-12.557 4.964-14.894z"/><path fill-rule="evenodd" clip-rule="evenodd" fill="#343D51" d="M176.102 232.817c-.481 3.08.086 7.033-1.558 10.125 2.916-.327 5.266-8.246 1.558-10.125z"/><g fill-rule="evenodd" clip-rule="evenodd" fill="#598CA3"><path d="M215.624 81.347c.08.469-.355.424-.193.974.984.117 1.559.646 2.725.584.118-1.395-1.305-2.142-2.532-1.558z"/><path d="M215.04 93.028c1.407-.01 2.82.895 4.089.389.589-1.604-.021-4.917.194-7.398-4.635-6.951-7.212 1.571-4.283 7.009zm-.584 1.558c.052 4.054.576 9.394 4.673 7.009.033-1.584-.388-4.068-.778-5.842-1.271-.417-2.373-1.002-3.895-1.167zm2.338 9.539c.268 1.938 1.427 2.984 2.919 3.7.199-1.474-.482-5.485-2.919-3.7zm127.912-.778c-1.675 1.99-4.257 5.047-4.089 7.593 2.853-.013 3.2-4.19 5.451-5.451.236-.987-.839-1.354-.39-1.946 16.57 6.143 33.538 11.889 43.61 24.531-2.494 3.021-6.604 4.428-9.345 7.203 4.003 1.664 6.587-4.305 10.708-5.062 3.461 2.646 5.059 9.254 3.31 14.797-3.341.441-6.442 2.1-9.539 2.141-4.339-7.797-8.469-15.803-15.576-20.83 2.851-1.953 5.834-3.771 8.372-6.037-3.612-1.594-6.995 3.419-9.735 5.258-12.682-7.437-27.023-13.213-42.053-18.301.349-2.703 2.864-3.236 3.115-6.036-3.388-2.524-2.535 4.817-5.646 5.646-2.775.74-13.793-2.465-14.018-3.309-.541-2.031 5.195-4.176 1.559-6.036-1.76 1.552-2.406 4.214-3.895 6.036-4.451.141-8.949-.416-13.045-1.168-.082-1.42 1.754-1.828.975-3.311-2.117-.729-2.475 1.92-3.312 3.115-9.624-.777-20.163-1.121-28.814-.974 24.842-4.458 60.147-7.381 82.357 2.141zm10.318 14.992c1.138-1.59 7.701-5.2 7.203-7.204-.486-1.954-8.042 4.438-7.203 7.204zm30.178 30.955c.472 2.511-.019 4.976-.196 7.398 5.604-2.24 10.781-13.162.196-7.398zm-53.735 3.115c-5.39-3.652-11.978 7.837-3.114 5.646 1.007-1.911 2.816-3.021 3.114-5.646zm.194 5.841c3.053.64 4.762-1.72 5.062-4.479-3.464-1.834-4.708 1.539-5.062 4.479zm7.787-3.7c-.508 1.115-1.529 1.717-1.558 3.311 2.296 1.576 4.316-.771 4.868-2.725-.673-.625-1.978-.619-3.31-.586zm4.479 3.506c.998 1.432 3.407-.027 3.309-1.558-.999-1.589-3.677.554-3.309 1.558zm4.283 1.363c1.076.869 2.354-.354 2.727-1.363-1.03-.823-2.999-.289-2.727 1.363zm4.283-1.169c-.127.677-.64 1.7-.391 2.142 1.205.1 1.216-.991 2.531-.778-.306-.861-1.032-1.304-2.14-1.364zm22.39 1.753c1.722 11.57 9.293 23.895 11.681 37.38.931.398 1.985-.205 3.31 0 .629-6.282.581-14.886-5.45-15.771.196-1.424 2.973-.271 3.698-1.168-.232-4.568-1.338-8.266-2.919-11.486-2.015-.971-5.771-.201-7.398-1.558 1.488-1.048 4.198-.991 6.034-1.169-.019-2.252-1.236-3.307-1.945-4.867-2.817-.054-3.908-2.736-7.011-1.361zm12.655 39.521c-.245 3.288-.534 9.837 1.946 11.682-.127-2.74 2.753-11.37-1.946-11.682zm-32.904 86.25c-.738-2.766-2.148-4.859-3.697-6.815-2.172.62-2.6 2.982-5.258 3.115-.57-2.616 4.271-3.362 4.479-5.257.422-3.875-6.1.549-6.035 4.479.051 3.197-1.891 8.084 1.362 11.098 4.057-.435 5.975-4.658 9.149-6.62zm-7.592 8.76c3.47 6.914 8.092 12.676 14.99 16.16 2.877-1.217 9.957-6.823 3.505-8.566-.743 2.826-3.765 3.374-4.478 6.23h-1.558c3.206-3.724 7.114-8.834.974-12.071-3.498.808-4.451 5.716-8.956 4.283 1.97-2.04 6.739-3.511 7.204-6.425 1.494-9.382-9.593-4.272-11.681.389zM141.058 130.993c-3.762 3.961 1.695 6.683 5.84 5.256-.031-.226.043-.346.195-.389-1.78-1.804-2.192-6.931-6.035-4.867zm-1.753 5.647c-2.245 3.152-1.659 9.06-1.947 13.629 1.424 1.44 5.954.779 7.788 1.167.59-3.899 1.221-8.756 1.168-12.655-2.182-.869-5.07-1.03-7.009-2.141zm-1.948 16.158c.019 3.629-.259 9.513 1.169 12.851 1.498.839 4.668.003 5.062 1.946-.643 1.619-2.678-.039-4.284.195 1.181 4.942.595 14.965 7.009 15.965-.398-10.258-1.645-20.606-1.363-30.957-2.357.586-5.152-.899-7.593 0zm6.62 32.709c.507 3.806 2.534 7.699 4.479 10.709-1.014-3.839.578-12.195-4.479-10.709zm84.302-42.053c-1.503 1.548-2.704 3.395-3.31 5.84 1.845.584 3.985-.147 6.035 0 1.575-1.176 1.762-6.329 4.674-4.283-.148 1.734-1.713 2.053-1.754 3.895 1.478.534 3.404.621 5.452.584 2.151-.783 1.323-6.354 4.478-4.867-.038 2.104-1.458 2.824-1.558 4.867 4.932 3.434 5.474-3.166 8.177-4.867 2.672 1.904-1.582 3.709-1.557 6.035 6.086 4.277 4.834-8.247 9.539-5.257-.996 1.989-2.576 3.394-2.92 6.035.924.145 2.023.604 2.92.195.848-2.787 2.521-5.786 3.894-7.399-10.442-1.876-22.594-1.803-34.07-.778zm-14.602 1.946c.45 2.059-1.424 3.165-2.141 4.673 3.944 1.189 4.113-3.006 6.814-3.699.448-.059.216.562.584.584.08 1.248-1.17 1.167-.975 2.531 1.239.341 3.418.26 4.674 0 .201-2.33 1.864-3.197 2.336-5.258-3.168-.412-7.504.948-11.292 1.169zm49.259-1.169c1.521 2.548-2.013 4.256-2.144 7.009 5.037 2.954 6.604-2.507 7.983-6.034-1.803-.467-3.823-1.317-5.839-.975zm-70.48 7.594c3.213.031 5.728-.632 8.566-.973.391-2.402 4.348-3.502 3.31-.195 2.12-.443 4.051-.34 6.035-.584-.13-2.143 1.247-2.777 1.752-4.283-7.374.416-15.02 2.24-19.663 6.035zm84.106-1.556c-.778 1.168-1.896 1.996-2.142 3.697 1.794.709 3.237-2.112 2.142-3.697zm-4.843-4.707c-2.173 2.021-3.724 4.664-5.215 7.366 4.784 3.459 6.237-2.339 8.956-4.284 0 .001.763-2.919-3.741-3.082zM85.011 182.14c2.129-1.145 3.865.463 5.08 1.834-4.926 7.109-11.779 12.166-17.704 18.213-1.806-.326-2.519-2.705-4.507-2.216.736 1.632 2.831 1.905 3.154 3.946-5.404 5.154-9.257 17.023-17.761 10.033 5.958 2.307 7.867 7.9 1.7 11.905.47 2.122-.322 3.458-1.211 4.653-4.479.726-7.007-1.398-10.19-1.723 1.372 3.336 6.65 1.643 9.405 3.463.044 3.762-.615 8.44-.957 12.446-2.127 1.503-6.497.621-9.482 1.21 2.076 1.74 6.014.719 8.685 1.309.001 3.781-1.085 8.073-1.147 12.443-1.404 1.939-6.215.26-7.791 2.016 9.41-2.814 9.633 6.777 11.891 13.628-1.867 1.117-4.43 1.496-6.844 2.03-7.145-8.617-9.312-20.811-8.52-34.991 1.449-25.934 22.188-41.507 36.276-55.104 2.208-4.056 5.546-6.909 9.421-9.194.746 1.159-.842 3.496.502 4.099zm-9.932 5.679c.436 2.768 2.604 4.803 5.029 4.95-.912-2.412-3.301-3.35-5.029-4.95zm-9.252 10.368c-.484.578.042 1.376.928 1.182.091-.794-.174-1.231-.928-1.182zm-16.703 80.926c3.739 5.067 8.271 9.366 14.013 12.493-4.383-3.891-5.007-17.41-14.013-12.493z"/></g><path opacity=".1" fill-rule="evenodd" clip-rule="evenodd" fill="#010101" d="M88.167 230.667s-16-7.5-21.667-18.834c0 0 10.667-13.666 14-13.666s8.333 5 9.167 9.666c.833 4.668-.5 15.334 1.333 17.168 1.833 1.832 7 12.332-2.833 5.666z"/></svg>