<svg xmlns="http://www.w3.org/2000/svg" width="159.992" height="17.205"><path fill="#475165" d="M1.812 1.908c.55 0 1.201.403 1.446.895l3.855 7.748c.245.492.645.491.888-.002l3.817-7.744c.243-.493.892-.897 1.442-.897h.485c.55 0 1 .45 1 1v12.083c0 .55-.398 1-.884 1s-.884-.45-.884-1V5.416c0-.55-.199-.596-.442-.103l-3.951 8.013c-.243.493-.709.897-1.036.897s-.792-.404-1.035-.897l-4.02-8.17c-.243-.493-.442-.447-.442.103v9.732c0 .55-.398 1-.884 1s-.884-.45-.884-1V2.908c0-.55.45-1 1-1h.529zm18.441.85c-.357 0-.638-.101-.839-.302-.202-.201-.303-.47-.303-.806 0-.336.101-.604.303-.806.201-.202.481-.302.839-.302s.646.101.862.302c.216.202.325.47.325.806 0 .335-.109.604-.325.806-.216.202-.503.302-.862.302zm-.873 3.508c0-.55.398-1 .884-1s.884.45.884 1v8.725c0 .55-.398 1-.884 1s-.884-.45-.884-1V6.266zm10.949.523c-1.687 0-2.56 1.329-2.619 3.985v4.217c0 .55-.398 1-.884 1s-.884-.45-.884-1V6.266c0-.55.398-1 .884-1s.884.45.884 1v.06c0 .55.249.625.553.167 0 0 .933-1.406 2.291-1.406.433 0 .843.067 1.231.202l-.09 1.724a4.273 4.273 0 00-1.366-.224zm10.792 3.261c0-.55-.054-1.447-.12-1.993 0 0-.081-.671-.484-1.089s-.989-.627-1.758-.627-1.388.153-1.859.459c-.47.306-.705.788-.705 1.444h-.948c-.55 0-.858-.427-.685-.949 0 0 .566-1.708 2.328-2.096a8.065 8.065 0 011.746-.179c1.328 0 2.365.335 3.112 1.007.746.672 1.119 1.694 1.119 3.067v5.896c0 .55-.343 1-.761 1s-.801-.403-.851-.896-.391-.562-.76-.154c0 0-1.173 1.296-2.89 1.296-1.149 0-2.07-.321-2.765-.962s-1.041-1.44-1.041-2.396c0-.955.384-1.702 1.153-2.239.769-.538 1.728-.806 2.877-.806s2.246.194 3.291.582v-.365zm0 1.485c-1.06-.298-1.985-.448-2.776-.448s-1.433.142-1.926.425c-.492.284-.738.731-.738 1.343 0 1.344.761 2.015 2.283 2.015.866 0 1.608-.31 2.229-.929.618-.618.928-1.42.928-2.406zm7.515-5.182c.053.547.382.647.73.221 0 0 1.271-1.554 2.972-1.554 1.269 0 2.258.418 2.967 1.253.709.836 1.063 1.978 1.063 3.426v5.292c0 .55-.393 1-.873 1s-.873-.45-.873-1v-4.292c0-.55-.06-1.446-.133-1.991 0 0-.11-.814-.594-1.337-.485-.522-1.176-.784-2.071-.784s-1.62.366-2.172 1.097c-.553.731-.844 1.747-.873 3.045v4.262c0 .55-.398 1-.884 1s-.884-.45-.884-1V6.289c0-.55.343-1 .761-1s.805.448.858.995l.006.069zm18.905.525V1.744c0-.55.393-1 .873-1s.873.45.873 1v13.247c0 .55-.322 1-.716 1s-.767-.403-.829-.896-.364-.523-.673-.067c0 0-.237.351-.805.694s-1.187.515-1.858.515c-1.358 0-2.496-.522-3.414-1.567s-1.377-2.407-1.377-4.086.451-3.026 1.354-4.041c.902-1.015 2.045-1.522 3.426-1.522 1.38-.001 2.429.619 3.146 1.857zm-3.045-.291c-.866 0-1.594.366-2.184 1.097-.59.731-.884 1.709-.884 2.933 0 1.224.298 2.206.896 2.944.597.739 1.313 1.108 2.149 1.108s1.548-.28 2.138-.84.899-1.31.93-2.25v-.747c0-.55-.072-1.444-.16-1.987 0 0-.131-.804-.713-1.386-.584-.581-1.307-.872-2.172-.872zm15.962 3.463c0-.55-.054-1.447-.12-1.993 0 0-.081-.671-.484-1.089s-.989-.627-1.758-.627-1.388.153-1.858.459c-.47.306-.705.788-.705 1.444h-.948c-.55 0-.858-.427-.685-.949 0 0 .566-1.708 2.328-2.096a8.065 8.065 0 011.746-.179c1.328 0 2.365.335 3.112 1.007.746.672 1.119 1.694 1.119 3.067v5.896c0 .55-.343 1-.761 1s-.801-.403-.851-.896-.391-.562-.76-.154c0 0-1.173 1.296-2.89 1.296-1.149 0-2.07-.321-2.765-.962s-1.041-1.44-1.041-2.396c0-.955.384-1.702 1.153-2.239.769-.538 1.728-.806 2.877-.806s2.246.194 3.291.582v-.365zm0 1.485c-1.06-.298-1.985-.448-2.776-.448s-1.433.142-1.926.425c-.492.284-.738.731-.738 1.343 0 1.344.761 2.015 2.283 2.015.866 0 1.608-.31 2.229-.929.619-.618.928-1.42.928-2.406zm12.125-9.627c.486 0 .884.45.884 1V7.11c0 .55.45 1 1 1h4.918c.55 0 1-.45 1-1V2.908c0-.55.398-1 .884-1s.884.45.884 1v12.083c0 .55-.398 1-.884 1s-.884-.45-.884-1v-4.358c0-.55-.45-1-1-1h-4.918c-.55 0-1 .45-1 1v4.358c0 .55-.398 1-.884 1s-.884-.45-.884-1V2.908c0-.55.398-1 .884-1zm17.944 3.112c1.492 0 2.698.485 3.616 1.455.918.971 1.377 2.359 1.377 4.165 0 1.791-.459 3.172-1.377 4.142s-2.124 1.455-3.616 1.455c-1.493 0-2.698-.485-3.616-1.455s-1.377-2.351-1.377-4.142c0-1.806.459-3.194 1.377-4.165.918-.97 2.123-1.455 3.616-1.455zm3.202 5.608c0-1.276-.27-2.276-.807-3s-1.324-1.086-2.362-1.086c-1.037 0-1.832.362-2.384 1.086-.553.724-.829 1.724-.829 3s.262 2.276.784 3c.522.725 1.302 1.086 2.34 1.086 1.037 0 1.839-.361 2.406-1.086.568-.723.852-1.723.852-3zm9.022-5.608c1.492 0 2.698.485 3.616 1.455.918.971 1.377 2.359 1.377 4.165 0 1.791-.459 3.172-1.377 4.142s-2.124 1.455-3.616 1.455c-1.493 0-2.698-.485-3.616-1.455s-1.377-2.351-1.377-4.142c0-1.806.459-3.194 1.377-4.165.918-.97 2.123-1.455 3.616-1.455zm3.203 5.608c0-1.276-.27-2.276-.807-3s-1.324-1.086-2.362-1.086c-1.037 0-1.832.362-2.384 1.086-.553.724-.829 1.724-.829 3s.262 2.276.784 3c.522.725 1.302 1.086 2.34 1.086 1.037 0 1.839-.361 2.406-1.086.567-.723.852-1.723.852-3zm4.309-5.339c.548 0 1.15.423 1.339.939l2.539 6.965c.188.517.498.517.688 0l2.557-6.966c.189-.517.793-.939 1.341-.939s.831.418.627.929l-3.516 8.844c-.204.511-.808.929-1.343.929s-1.14-.418-1.343-.929l-3.516-8.844c-.203-.51.079-.928.627-.928zm15.819 9.515c1.478 0 2.32-.649 2.529-1.948h.813c.55 0 .857.427.683.948 0 0-.321.959-1.104 1.548-.784.59-1.758.884-2.922.884-1.434 0-2.598-.511-3.493-1.534-.896-1.022-1.344-2.384-1.344-4.086s.451-3.06 1.354-4.075 2.105-1.522 3.605-1.522 2.619.582 3.358 1.746c.738 1.165.996 2.583.772 4.254h-6.321c-.55 0-.94.446-.868.991 0 0 .136 1.021.673 1.729s1.294 1.065 2.265 1.065zm1.297-8.105c-.343-.179-.761-.269-1.254-.269-.91 0-1.631.31-2.16.929-.53.62-.84 1.392-.93 2.317h5.71c.001-1.491-.455-2.485-1.366-2.977zm10.904.09c-1.687 0-2.56 1.329-2.619 3.985v4.217c0 .55-.398 1-.884 1s-.884-.45-.884-1V6.266c0-.55.398-1 .884-1s.884.45.884 1v.06c0 .55.249.625.553.167 0 0 .933-1.406 2.291-1.406.433 0 .843.067 1.231.202l-.09 1.724a4.273 4.273 0 00-1.366-.224z"/></svg>