<?xml version="1.0" encoding="utf-8"?>
<!-- Generator: Adobe Illustrator 15.0.0, SVG Export Plug-In . SVG Version: 6.00 Build 0)  -->
<!DOCTYPE svg PUBLIC "-//W3C//DTD SVG 1.1//EN" "http://www.w3.org/Graphics/SVG/1.1/DTD/svg11.dtd">
<svg version="1.1" id="Layer_1" xmlns="http://www.w3.org/2000/svg" xmlns:xlink="http://www.w3.org/1999/xlink" x="0px" y="0px"
	 width="32px" height="32px" viewBox="0 0 32 32" enable-background="new 0 0 32 32" xml:space="preserve">
<path fill="#FFFFFF" d="M26.771,14.496V25.34c0,1.969-1.602,3.571-3.57,3.571H6.66c-1.969,0-3.571-1.603-3.571-3.571V8.797
	c0-1.969,1.602-3.571,3.571-3.571h10.672V2.138H6.66C2.987,2.138,0,5.125,0,8.797V25.34C0,29.013,2.987,32,6.66,32h16.542
	c3.672,0,6.66-2.987,6.66-6.66V14.496H26.771z"/>
<polygon fill="#FFFFFF" points="19.584,0 19.582,3.089 26.459,3.093 11.435,18.117 13.619,20.303 28.907,5.014 28.904,12.419 
	31.994,12.42 32,0.005 "/>
</svg>
