<?xml version="1.0" encoding="utf-8"?>
<!-- Generator: Adobe Illustrator 15.0.0, SVG Export Plug-In . SVG Version: 6.00 Build 0)  -->
<!DOCTYPE svg PUBLIC "-//W3C//DTD SVG 1.1//EN" "http://www.w3.org/Graphics/SVG/1.1/DTD/svg11.dtd">
<svg version="1.1" id="Layer_1" xmlns="http://www.w3.org/2000/svg" xmlns:xlink="http://www.w3.org/1999/xlink" x="0px" y="0px"
	 width="32px" height="32px" viewBox="0 0 32 32" enable-background="new 0 0 32 32" xml:space="preserve">
<g>
	<path d="M11.026,18.869c-5.239-2.964-13.542-0.147-10.292-7.717c3.232-7.521,6.397,0.103,12.217,1.604
		C13.692,6.515,7.23,0,15.952,0s2.274,6.515,3,12.755c5.838-1.6,8.989-9.412,12.217-1.764c3.229,7.644-4.825,4.697-10.07,7.769
		c3.438,5.101,12.516,5.941,6.059,11.52c-6.459,5.588-6.523-3.878-11.099-8.091c-4.516,4.12-4.917,13.707-11.198,8.091
		C-1.391,24.694,7.594,23.872,11.026,18.869L11.026,18.869z"/>
</g>
</svg>
